<?xml version="1.0" encoding="UTF-8" standalone="no"?>
<!DOCTYPE svg PUBLIC "-//W3C//DTD SVG 1.1//EN" "http://www.w3.org/Graphics/SVG/1.1/DTD/svg11.dtd">
<svg width="100%" height="100%" viewBox="0 0 48 27" version="1.1" xmlns="http://www.w3.org/2000/svg" xmlns:xlink="http://www.w3.org/1999/xlink" xml:space="preserve" xmlns:serif="http://www.serif.com/" style="fill-rule:evenodd;clip-rule:evenodd;stroke-linejoin:round;stroke-miterlimit:2;">
    <g transform="matrix(1,0,0,1,-134.975,-813.361)">
        <g transform="matrix(0.909448,0,0,0.810868,14.1549,155.346)">
            <rect x="132.85" y="811.494" width="52.779" height="33.298" style="fill:none;"/>
        </g>
        <g transform="matrix(1,0,0,1,-2.32532,2.7942)">
            <path d="M138.482,831.186C139.365,831.147 140.662,830.747 141.299,830.207L141.314,830.195L141.33,830.183C142.423,829.412 143.686,827.8 144.317,827.211C145.609,826.004 147.725,825.301 149.259,825.651C149.622,825.136 150.121,824.081 150.295,823.391C150.295,823.391 151.146,823.725 151.375,823.853L163.357,811.567L165.196,813.503L153.222,825.751C153.315,825.93 153.402,826.118 153.481,826.316L153.633,826.736L153.671,827.118C153.103,826.892 151.824,827.682 151.71,828.093C152.293,831.694 151.246,834.523 148.091,836.353L147.722,836.567L147.488,836.211C147.301,835.927 147.171,835.602 147.096,835.235C146.491,835.842 145.724,836.208 144.784,836.318L144.767,836.32L144.751,836.321C143.067,836.393 141.565,835.45 140.2,833.852L141.341,832.891C141.098,832.912 139.941,833.177 139.697,833.17L139.249,833.157C139.486,832.809 138.613,831.259 138.482,831.186ZM152.13,824.371C152.345,824.553 152.54,824.754 152.718,824.976L163.943,813.494L163.349,812.868C163.349,812.868 152.463,824.03 152.13,824.371ZM151.187,827.359C151.6,827.028 152.075,826.684 152.576,826.493C152.778,826.124 151.129,824.361 150.661,824.467C150.468,825.077 150.195,825.603 149.855,826.079C150.188,826.564 150.725,827.053 151.187,827.359ZM149.133,826.548C147.854,826.197 146.038,826.838 144.933,827.87C144.286,828.475 142.984,830.115 141.862,830.912C141.283,831.401 140.651,831.764 139.931,831.89C140.001,832.015 140.055,832.14 140.094,832.266C140.801,832.237 141.502,832.075 142.199,831.857L142.738,832.488C142.456,833.061 141.987,833.487 141.342,833.768C142.361,834.821 143.454,835.463 144.686,835.42C145.796,835.286 146.585,834.691 147.101,833.694L147.95,833.95C147.893,834.474 147.917,834.934 148.049,835.319C150.535,833.685 151.315,831.243 150.812,828.192C150.156,827.778 149.579,827.253 149.133,826.548ZM176.771,828.936C176.601,830.009 175.12,830.212 173.629,829.91C173.053,829.48 172.388,829.309 171.786,829.262L171.627,827.528C173.294,826.637 176.64,827.048 176.78,828.575C176.792,828.695 176.789,828.817 176.771,828.936ZM171.072,829.281C168.601,830.557 167.699,827.058 170.911,827.516L171.072,829.281ZM162.748,829.293C162.578,830.366 161.097,830.569 159.606,830.267C159.03,829.837 158.366,829.666 157.764,829.619L157.605,827.885C159.271,826.994 162.617,827.405 162.757,828.932C162.769,829.052 162.767,829.173 162.748,829.293ZM157.049,829.638C154.578,830.915 153.676,827.415 156.887,827.873L157.049,829.638ZM170.276,835.031C170.278,835.152 170.264,835.274 170.235,835.391C169.885,836.884 166.514,836.826 164.987,835.713L165.386,834.017C165.989,834.053 166.671,833.976 167.301,833.63C168.818,833.539 170.257,833.946 170.276,835.031ZM164.68,833.898L164.276,835.623C161.032,835.632 162.411,832.292 164.68,833.898ZM184.069,833.688C184.101,833.805 184.118,833.926 184.119,834.047C184.151,835.581 180.869,836.359 179.116,835.657L179.081,833.916C179.672,833.801 180.315,833.559 180.839,833.067C182.288,832.606 183.781,832.641 184.069,833.688ZM178.367,833.978L178.403,835.749C175.262,836.562 175.77,832.984 178.367,833.978Z"/>
        </g>
    </g>
</svg>
