<?xml version="1.0" encoding="UTF-8" standalone="no"?>
<!DOCTYPE svg PUBLIC "-//W3C//DTD SVG 1.1//EN" "http://www.w3.org/Graphics/SVG/1.1/DTD/svg11.dtd">
<svg width="100%" height="100%" viewBox="0 0 30 27" version="1.1" xmlns="http://www.w3.org/2000/svg" xmlns:xlink="http://www.w3.org/1999/xlink" xml:space="preserve" xmlns:serif="http://www.serif.com/" style="fill-rule:evenodd;clip-rule:evenodd;stroke-linejoin:round;stroke-miterlimit:2;">
    <g transform="matrix(1,0,0,1,-89.4902,-221.27)">
        <g transform="matrix(0.977348,0,0,1,14.3741,114.271)">
            <rect x="76.857" y="106.999" width="30.695" height="27.045" style="fill:none;"/>
        </g>
        <g transform="matrix(1,0,0,1,-3.75789,-4.19038)">
            <g transform="matrix(1,0,0,1.00704,-22.2092,21.1248)">
                <path d="M127.583,205.391L127.583,227.281C127.583,227.61 127.315,227.876 126.983,227.876L122.139,227.876C121.808,227.876 121.539,227.61 121.539,227.281L121.539,205.391C121.539,205.062 121.808,204.795 122.139,204.795L126.983,204.795C127.315,204.795 127.583,205.062 127.583,205.391ZM126.383,205.987L122.739,205.987L122.739,226.685L126.383,226.685L126.383,205.987Z"/>
            </g>
            <g transform="matrix(3.67649e-17,0.600417,-0.600417,3.67649e-17,248.385,160.316)">
                <path d="M131.731,215.511L150.051,234.006C150.335,234.293 150.419,234.722 150.264,235.094C150.108,235.466 149.745,235.709 149.341,235.709L112.7,235.709C112.297,235.709 111.933,235.466 111.778,235.094C111.623,234.722 111.706,234.293 111.99,234.006L130.311,215.511C130.498,215.322 130.754,215.215 131.021,215.215C131.287,215.215 131.543,215.322 131.731,215.511ZM131.021,217.634L115.097,233.71L146.945,233.71L131.021,217.634Z"/>
            </g>
        </g>
    </g>
</svg>
