<?xml version="1.0" encoding="UTF-8" standalone="no"?>
<!DOCTYPE svg PUBLIC "-//W3C//DTD SVG 1.1//EN" "http://www.w3.org/Graphics/SVG/1.1/DTD/svg11.dtd">
<svg width="100%" height="100%" viewBox="0 0 27 27" version="1.1" xmlns="http://www.w3.org/2000/svg" xmlns:xlink="http://www.w3.org/1999/xlink" xml:space="preserve" xmlns:serif="http://www.serif.com/" style="fill-rule:evenodd;clip-rule:evenodd;stroke-linejoin:round;stroke-miterlimit:2;">
    <g transform="matrix(1,0,0,1,-460.135,-339.632)">
        <g transform="matrix(0.174791,0,0,0.174791,430.45,271.173)">
            <g transform="matrix(1,0,0,1,40.4404,-16.5718)">
                <path d="M257.491,495.266C261.989,493.26 268.483,495.377 269.798,500.451C271.006,505.115 271.343,519.85 270.235,529.455C268.725,542.543 261.803,550.491 254.393,554.497C243.259,560.518 227.467,557.583 218.065,549.031C206.694,538.688 197.264,525.684 194.069,519.038C191.182,513.033 193.585,502.446 202.915,503.757C204.249,503.945 207.624,505.176 210.058,507.194C212.036,508.835 214.197,510.883 216.035,512.704C215.878,500.819 215.705,475.763 216.924,469.519C218.075,463.623 223.484,461.454 227.798,462.824C230.674,463.738 233.159,466.201 233.544,470.316C233.776,472.803 233.868,478.585 233.891,484.98C238.516,482.865 245.475,485.518 246.073,491.25C248.524,490.065 251.413,489.98 253.697,491.328C254.995,492.094 256.716,493.57 257.491,495.266ZM233.893,491.45C233.87,500.924 233.749,509.806 233.749,509.806L228.75,509.737C228.75,509.737 229.205,477.622 228.565,470.781C228.405,469.072 227.479,467.969 226.284,467.59C224.491,467.02 222.31,468.026 221.831,470.477C220.253,478.565 221.134,518.916 221.134,518.916C221.156,519.955 220.533,520.899 219.57,521.287C218.606,521.676 217.503,521.428 216.798,520.665C216.798,520.665 209.169,512.6 206.944,510.439C201.824,505.465 194.626,510.259 198.575,516.872C202.168,522.888 210.624,535.504 221.429,545.332C229.311,552.501 242.682,555.146 252.015,550.099C258.251,546.727 263.997,539.898 265.268,528.882C265.963,522.862 266.096,514.691 265.769,508.632C265.607,505.633 265.332,503.152 264.958,501.705C264.467,499.812 261.669,498.608 260.033,499.279C259.335,499.565 258.662,500.264 258.194,501.201C258.296,505.864 258.069,511.615 258.069,511.615L252.77,511.552L252.741,497.6C251.68,494.5 247.223,494.052 246.141,497.298C246.166,503.236 246.193,510.881 246.193,510.881L241.417,510.826C241.417,510.826 241.064,497.075 241.194,492.427C241.319,487.939 234.691,487.835 233.893,491.45Z"/>
            </g>
            <g transform="matrix(0.932421,-0.000238063,-0.000238063,0.999999,13.9564,0.0491645)">
                <path d="M201.532,435.949C199.963,435.943 198.694,434.751 198.699,433.289C198.704,431.826 199.982,430.643 201.55,430.649L262.697,430.864C264.265,430.87 265.534,432.062 265.529,433.524C265.524,434.987 264.246,436.17 262.678,436.164L201.532,435.949Z"/>
            </g>
            <g transform="matrix(0.760046,0.00139231,0.00139231,0.999992,48.8647,6.4563)">
                <path d="M201.511,446.27C199.586,446.281 198.017,445.103 198.009,443.64C198,442.178 199.556,440.981 201.48,440.97L262.261,440.618C264.185,440.606 265.755,441.785 265.763,443.247C265.772,444.71 264.216,445.906 262.292,445.918L201.511,446.27Z"/>
            </g>
            <g transform="matrix(0.75704,-0.000447624,-0.000447624,0.999999,49.783,10.8163)">
                <path d="M202.026,459.058C200.094,459.055 198.528,457.864 198.531,456.402C198.533,454.939 200.104,453.755 202.036,453.758L261.402,453.868C263.334,453.871 264.9,455.061 264.898,456.524C264.895,457.987 263.324,459.171 261.392,459.168L202.026,459.058Z"/>
            </g>
            <g transform="matrix(0.49149,-0.000936869,-0.000936869,0.999998,103.779,27.8787)">
                <path d="M202.026,459.058C199.05,459.053 196.637,457.861 196.639,456.398C196.642,454.936 199.06,453.753 202.036,453.758L261.402,453.868C264.378,453.873 266.792,455.065 266.789,456.527C266.786,457.99 264.368,459.173 261.392,459.168L202.026,459.058Z"/>
            </g>
            <g transform="matrix(0.37018,-0.00116037,-0.00116037,0.999998,128.695,44.6216)">
                <path d="M202.026,459.058C198.075,459.051 194.87,457.858 194.872,456.395C194.875,454.932 198.085,453.751 202.036,453.758L261.402,453.868C265.353,453.875 268.558,455.068 268.556,456.531C268.553,457.993 265.343,459.175 261.392,459.168L202.026,459.058Z"/>
            </g>
            <g transform="matrix(1.01997,0,0,1.00793,36.6586,-24.3844)">
                <path d="M210.85,556.64L160.993,556.64C153.96,556.64 148.25,550.862 148.25,543.745L148.25,442.852C148.25,441.401 149.415,440.222 150.849,440.222C152.282,440.222 153.447,441.401 153.447,442.852L153.447,543.745C153.447,547.96 156.828,551.382 160.993,551.382L210.85,551.382L210.85,556.64ZM248.417,492.019L248.417,435.225C248.417,433.774 249.581,432.596 251.015,432.596C252.449,432.596 253.613,433.774 253.613,435.225L253.613,492.019L248.417,492.019Z"/>
            </g>
            <g transform="matrix(1,0,0,1,-1.70764,45.9431)">
                <g>
                    <g transform="matrix(0.669919,0,0,0.811577,88.296,19.5118)">
                        <path d="M280.784,428.474C280.784,430.276 279.011,431.74 276.828,431.74C274.645,431.74 272.872,430.276 272.872,428.474C272.872,418.034 281.743,409.843 292.162,409.843C302.58,409.843 311.451,418.034 311.451,428.474C311.451,430.276 309.678,431.74 307.495,431.74C305.312,431.74 303.539,430.276 303.539,428.474C303.539,421.949 298.673,416.374 292.162,416.374C285.65,416.374 280.784,421.949 280.784,428.474Z"/>
                    </g>
                    <g transform="matrix(1,0.00026052,0.00026052,1.02061,0.0527227,-7.58703)">
                        <path d="M270.904,366.974C270.886,365.541 272.058,364.363 273.521,364.344C274.983,364.326 276.185,365.474 276.204,366.907L276.281,373.026C276.299,374.459 275.126,375.637 273.664,375.655C272.201,375.674 270.999,374.525 270.981,373.093L270.904,366.974Z"/>
                    </g>
                    <g transform="matrix(0.669919,0,0,0.811577,-8.56413,21.0899)">
                        <path d="M280.784,428.474C280.784,430.276 279.011,431.74 276.828,431.74C274.645,431.74 272.872,430.276 272.872,428.474C272.872,418.034 281.743,409.843 292.162,409.843C294.345,409.843 296.117,411.306 296.117,413.108C296.117,414.91 294.345,416.374 292.162,416.374C285.65,416.374 280.784,421.949 280.784,428.474Z"/>
                    </g>
                    <g transform="matrix(1,0.00026052,0.00026052,1.02061,-96.8074,-6.00891)">
                        <path d="M270.904,366.974C270.886,365.541 272.058,364.363 273.521,364.344C274.983,364.326 276.185,365.474 276.204,366.907L276.281,373.026C276.299,374.459 275.126,375.637 273.664,375.655C272.201,375.674 270.999,374.525 270.981,373.093L270.904,366.974Z"/>
                    </g>
                    <g transform="matrix(1,0,0,1,4.33984,-50.7281)">
                        <path d="M172.614,428.188C171.152,428.206 169.95,427.033 169.932,425.57C169.915,424.108 171.087,422.906 172.55,422.889L269.466,421.718C270.928,421.7 272.13,422.873 272.147,424.336C272.165,425.798 270.992,427 269.53,427.017L172.614,428.188Z"/>
                    </g>
                    <g transform="matrix(1,0,0,1,4.33984,-50.7281)">
                        <path d="M182.864,409.737C181.401,409.761 180.195,408.593 180.171,407.13C180.147,405.668 181.315,404.461 182.777,404.438L279.638,402.859C281.1,402.836 282.307,404.004 282.33,405.466C282.354,406.928 281.186,408.135 279.724,408.159L182.864,409.737Z"/>
                    </g>
                </g>
            </g>
        </g>
        <g transform="matrix(0.502905,0,0,0.944951,250.031,56.0876)">
            <rect x="417.781" y="300.063" width="52.708" height="28.573" style="fill:none;"/>
        </g>
    </g>
</svg>
