<?xml version="1.0" encoding="UTF-8" standalone="no"?>
<!DOCTYPE svg PUBLIC "-//W3C//DTD SVG 1.1//EN" "http://www.w3.org/Graphics/SVG/1.1/DTD/svg11.dtd">
<svg width="100%" height="100%" viewBox="0 0 30 27" version="1.1" xmlns="http://www.w3.org/2000/svg" xmlns:xlink="http://www.w3.org/1999/xlink" xml:space="preserve" xmlns:serif="http://www.serif.com/" style="fill-rule:evenodd;clip-rule:evenodd;stroke-linejoin:round;stroke-miterlimit:2;">
    <g transform="matrix(1.07761,0,0,1.07761,-168.851,-351.808)">
        <g>
            <g transform="matrix(1,0,0,1,36.5888,-2.55737)">
                <path d="M134.426,344.976L129.178,344.976L129.073,348.032C132.447,348.619 135.4,349.98 137.942,352.094C138.196,352.306 138.231,352.684 138.019,352.939C137.807,353.193 137.429,353.228 137.174,353.016C133.289,349.784 128.375,348.45 122.413,349.03C122.084,349.062 121.79,348.82 121.758,348.491C121.726,348.161 121.967,347.868 122.297,347.835C124.265,347.644 126.125,347.652 127.878,347.858L127.977,344.976L122.344,344.976C122.017,344.97 121.755,344.703 121.755,344.376L121.755,344.365C121.785,342.789 122.372,341.37 123.626,340.144L122.111,339.47L121.606,339.21L121.839,338.616C122.592,337.345 123.509,336.216 124.805,335.412L123.691,334.702L123.972,334.206C124.896,332.577 128.117,329.891 128.385,329.957C128.653,329.891 131.874,332.577 132.798,334.206L133.079,334.702C133.079,334.702 131.965,335.412 131.966,335.412C133.261,336.216 134.178,337.345 134.931,338.616L135.178,339.219L134.659,339.47C134.659,339.47 133.144,340.144 133.145,340.144C134.398,341.37 134.985,342.789 135.015,344.365L135.015,344.376C135.015,344.703 134.753,344.97 134.426,344.976ZM123.004,343.776L133.766,343.776C133.585,342.52 132.908,341.409 131.673,340.454L131,339.799L131.796,339.431L133.539,338.655C132.8,337.547 131.876,336.597 130.53,336.012L129.752,335.592L130.448,334.955L131.462,334.309C130.671,333.057 129.677,332.019 128.385,331.292C127.093,332.019 126.099,333.057 125.308,334.309L126.323,334.955L127.094,335.45L126.24,335.937C124.894,336.523 123.97,337.547 123.231,338.655L124.974,339.431L125.901,339.937L125.097,340.454C123.862,341.409 123.185,342.52 123.004,343.776Z"/>
            </g>
            <g transform="matrix(1,0,0,1,36.5888,-2.55737)">
                <path d="M144.053,343.103L141.236,343.103L141.189,344.788C142.844,344.898 144.52,345.188 145.998,345.604C146.317,345.694 146.503,346.025 146.413,346.344C146.324,346.663 145.992,346.849 145.673,346.759C144.166,346.336 142.442,346.046 140.76,345.963C140.696,345.984 140.627,345.994 140.556,345.992C140.479,345.99 140.407,345.974 140.34,345.946C139.379,345.918 138.439,345.959 137.571,346.084C136.016,346.308 134.691,346.782 133.953,347.662C133.74,347.916 133.362,347.949 133.108,347.736C132.854,347.523 132.821,347.144 133.034,346.891C133.931,345.82 135.509,345.168 137.4,344.897C138.216,344.779 139.092,344.73 139.99,344.741L140.036,343.103L136.752,343.103C136.64,343.249 136.462,343.342 136.264,343.339C135.933,343.332 135.669,343.059 135.676,342.727C135.695,341.684 136.055,340.736 136.82,339.905L136.031,339.553C135.541,339.49 135.462,339.199 135.759,338.699C136.241,337.886 136.819,337.157 137.604,336.606L136.936,336.18L137.217,335.684C137.857,334.556 140.158,332.635 140.403,332.676C140.647,332.635 142.948,334.556 143.588,335.684L143.869,336.18L143.201,336.606C143.987,337.157 144.565,337.886 145.046,338.699C145.335,339.137 145.269,339.431 144.774,339.553L143.985,339.905C144.751,340.735 145.11,341.684 145.13,342.727C145.136,343.059 144.872,343.332 144.541,343.339C144.343,343.342 144.165,343.249 144.053,343.103ZM137.009,341.903L143.796,341.903C143.6,341.273 143.186,340.705 142.537,340.204C142.046,339.785 142.065,339.441 142.66,339.181L143.645,338.742C143.181,338.093 142.605,337.539 141.796,337.187C141.081,336.867 141.101,336.513 141.713,336.131L142.246,335.791C141.759,335.061 141.16,334.449 140.403,334.002C139.646,334.449 139.047,335.061 138.56,335.791L139.093,336.131C139.78,336.589 139.793,336.947 139.01,337.187C138.201,337.539 137.625,338.093 137.16,338.742L138.145,339.181C138.783,339.418 138.914,339.744 138.268,340.204C137.619,340.705 137.206,341.273 137.009,341.903Z"/>
            </g>
            <g transform="matrix(0.684455,0,0,0.684455,89.1177,104.471)">
                <path d="M122.355,345.253C121.871,345.253 121.478,344.86 121.478,344.376C121.478,343.892 121.871,343.5 122.355,343.5L134.415,343.5C134.899,343.5 135.292,343.892 135.292,344.376C135.292,344.86 134.899,345.253 134.415,345.253L122.355,345.253Z"/>
            </g>
        </g>
    </g>
</svg>
