<?xml version="1.0" encoding="UTF-8" standalone="no"?>
<!DOCTYPE svg PUBLIC "-//W3C//DTD SVG 1.1//EN" "http://www.w3.org/Graphics/SVG/1.1/DTD/svg11.dtd">
<svg width="100%" height="100%" viewBox="0 0 30 27" version="1.1" xmlns="http://www.w3.org/2000/svg" xmlns:xlink="http://www.w3.org/1999/xlink" xml:space="preserve" xmlns:serif="http://www.serif.com/" style="fill-rule:evenodd;clip-rule:evenodd;stroke-linejoin:round;stroke-miterlimit:2;">
    <g transform="matrix(1,0,0,1,-83.2946,-157.083)">
        <g>
            <g transform="matrix(0.977348,0,0,1,8.17847,50.084)">
                <rect x="76.857" y="106.999" width="30.695" height="27.045" style="fill:none;"/>
            </g>
            <g transform="matrix(1,0,0,1,-21.1938,48.8362)">
                <g transform="matrix(-1.18213e-16,-1.93056,-1.28996,7.89875e-17,422.724,195.466)">
                    <path d="M39.297,230.849L38.327,230.849C38.21,230.849 38.102,230.75 38.049,230.593C37.997,230.435 38.008,230.247 38.078,230.106L39.989,225.243C40.048,225.126 40.14,225.057 40.238,225.057C40.336,225.057 40.428,225.126 40.487,225.243L42.398,230.106C42.468,230.247 42.479,230.435 42.426,230.593C42.374,230.75 42.266,230.849 42.149,230.849C42.149,230.849 41.179,230.849 41.179,230.849L41.179,244.624C41.179,244.881 41.04,245.089 40.868,245.089L39.608,245.089C39.436,245.089 39.297,244.881 39.297,244.624L39.297,230.849ZM39.918,230.384L39.918,244.159C39.918,244.159 40.557,244.159 40.557,244.159L40.557,230.384C40.557,230.127 40.697,229.919 40.868,229.919L41.528,229.919L40.238,226.299L38.948,229.919L39.608,229.919C39.779,229.919 39.918,230.127 39.918,230.384Z"/>
                </g>
                <g transform="matrix(1.18213e-16,-1.93056,1.28996,7.89875e-17,-183.747,203.437)">
                    <path d="M39.297,230.849L38.327,230.849C38.21,230.849 38.102,230.75 38.049,230.593C37.997,230.435 38.008,230.247 38.078,230.106L39.989,225.243C40.048,225.126 40.14,225.057 40.238,225.057C40.336,225.057 40.428,225.126 40.487,225.243L42.398,230.106C42.468,230.247 42.479,230.435 42.426,230.593C42.374,230.75 42.266,230.849 42.149,230.849C42.149,230.849 41.179,230.849 41.179,230.849L41.179,244.624C41.179,244.881 41.04,245.089 40.868,245.089L39.608,245.089C39.436,245.089 39.297,244.881 39.297,244.624L39.297,230.849ZM39.918,230.384L39.918,244.159C39.918,244.159 40.557,244.159 40.557,244.159L40.557,230.384C40.557,230.127 40.697,229.919 40.868,229.919L41.528,229.919L40.238,226.299L38.948,229.919L39.608,229.919C39.779,229.919 39.918,230.127 39.918,230.384Z"/>
                </g>
            </g>
        </g>
    </g>
</svg>
