<?xml version="1.0" encoding="UTF-8" standalone="no"?>
<!DOCTYPE svg PUBLIC "-//W3C//DTD SVG 1.1//EN" "http://www.w3.org/Graphics/SVG/1.1/DTD/svg11.dtd">
<svg width="100%" height="100%" viewBox="0 0 30 25" version="1.1" xmlns="http://www.w3.org/2000/svg" xmlns:xlink="http://www.w3.org/1999/xlink" xml:space="preserve" xmlns:serif="http://www.serif.com/" style="fill-rule:evenodd;clip-rule:evenodd;stroke-linejoin:round;stroke-miterlimit:2;">
    <g transform="matrix(1.60722e-17,0.262479,0.262479,-1.60722e-17,-118.878,-48.3725)">
        <g>
            <path d="M257.491,495.266C261.989,493.26 268.483,495.377 269.798,500.451C271.006,505.115 271.343,519.85 270.235,529.455C268.725,542.543 261.803,550.491 254.393,554.497C243.259,560.518 227.467,557.583 218.065,549.031C206.694,538.688 197.264,525.684 194.069,519.038C191.182,513.033 193.585,502.446 202.915,503.757C204.249,503.945 207.624,505.176 210.058,507.194C212.036,508.835 214.197,510.883 216.035,512.704C215.878,500.819 215.705,475.763 216.924,469.519C218.075,463.623 223.484,461.454 227.798,462.824C230.674,463.738 233.159,466.201 233.544,470.316C233.776,472.803 233.868,478.585 233.891,484.98C238.516,482.865 245.475,485.518 246.073,491.25C248.524,490.065 251.413,489.98 253.697,491.328C254.995,492.094 256.716,493.57 257.491,495.266ZM233.893,491.45C233.87,500.924 233.749,509.806 233.749,509.806L228.75,509.737C228.75,509.737 229.205,477.622 228.565,470.781C228.405,469.072 227.479,467.969 226.284,467.59C224.491,467.02 222.31,468.026 221.831,470.477C220.253,478.565 221.134,518.916 221.134,518.916C221.156,519.955 220.533,520.899 219.57,521.287C218.606,521.676 217.503,521.428 216.798,520.665C216.798,520.665 209.169,512.6 206.944,510.439C201.824,505.465 194.626,510.259 198.575,516.872C202.168,522.888 210.624,535.504 221.429,545.332C229.311,552.501 242.682,555.146 252.015,550.099C258.251,546.727 263.997,539.898 265.268,528.882C265.963,522.862 266.096,514.691 265.769,508.632C265.607,505.633 265.332,503.152 264.958,501.705C264.467,499.812 261.669,498.608 260.033,499.279C259.335,499.565 258.662,500.264 258.194,501.201C258.296,505.864 258.069,511.615 258.069,511.615L252.77,511.552L252.741,497.6C251.68,494.5 247.223,494.052 246.141,497.298C246.166,503.236 246.193,510.881 246.193,510.881L241.417,510.826C241.417,510.826 241.064,497.075 241.194,492.427C241.319,487.939 234.691,487.835 233.893,491.45Z"/>
        </g>
    </g>
</svg>
