<?xml version="1.0" encoding="UTF-8" standalone="no"?>
<!DOCTYPE svg PUBLIC "-//W3C//DTD SVG 1.1//EN" "http://www.w3.org/Graphics/SVG/1.1/DTD/svg11.dtd">
<svg width="100%" height="100%" viewBox="0 0 62 27" version="1.1" xmlns="http://www.w3.org/2000/svg" xmlns:xlink="http://www.w3.org/1999/xlink" xml:space="preserve" xmlns:serif="http://www.serif.com/" style="fill-rule:evenodd;clip-rule:evenodd;stroke-linejoin:round;stroke-miterlimit:2;">
    <g transform="matrix(1,0,0,1,-32.8949,-320.216)">
        <g>
            <g transform="matrix(0.994488,0,0,1,-0.444651,-2.42092)">
                <g transform="matrix(1,0,0,1,-50.7781,22.5777)">
                    <g transform="matrix(1.01216,0,0,1.40337,3.62467,-131.752)">
                        <path d="M120.148,326.239L120.046,308.395L121.034,308.392L121.037,308.935C121.506,308.806 122.128,308.735 122.873,308.875C124,309.087 124.39,310.679 126.775,310.734C130.159,310.812 129.451,308.675 133.531,308.645C136.217,308.625 136.393,310.619 137.841,311.161C139.305,311.709 140.486,310.833 140.486,310.833L140.486,319.028C140.486,319.028 139.32,319.891 137.878,319.338C136.486,318.803 136.049,316.879 133.728,316.844C130.307,316.792 130.067,318.945 126.947,318.935C124.062,318.927 124.425,317.309 123.27,317.098C122.471,316.952 121.682,317.065 121.084,317.219L121.136,326.236L120.148,326.239ZM121.08,316.481C121.781,316.333 122.642,316.249 123.512,316.407C124.11,316.516 124.519,316.805 124.868,317.211C125.21,317.608 125.488,318.218 126.951,318.223C128.217,318.227 128.878,317.758 129.59,317.328C130.629,316.7 131.724,316.101 133.748,316.131C135.263,316.154 136.194,316.756 136.942,317.476C137.226,317.75 137.481,318.039 137.752,318.293C137.933,318.463 138.111,318.62 138.342,318.708C138.817,318.891 139.237,318.792 139.498,318.682L139.498,311.996C138.894,312.097 138.168,312.086 137.386,311.793C136.667,311.524 136.157,310.994 135.643,310.424C135.189,309.92 134.719,309.349 133.541,309.357C131.472,309.373 130.881,310.06 130.104,310.569C129.331,311.074 128.451,311.485 126.743,311.446C125.209,311.411 124.307,310.894 123.617,310.339C123.398,310.163 123.204,309.984 123.014,309.825C122.881,309.714 122.786,309.595 122.624,309.565C121.898,309.428 121.347,309.589 121.041,309.724L121.08,316.481Z"/>
                    </g>
                    <g transform="matrix(-1.01216,0,0,1.40337,227.324,-131.752)">
                        <path d="M120.148,326.239L120.046,308.395L121.034,308.392L121.037,308.935C121.506,308.806 122.128,308.735 122.873,308.875C124,309.087 124.39,310.679 126.775,310.734C130.159,310.812 129.451,308.675 133.531,308.645C136.217,308.625 136.393,310.619 137.841,311.161C139.305,311.709 140.486,310.833 140.486,310.833L140.486,319.028C140.486,319.028 139.32,319.891 137.878,319.338C136.486,318.803 136.049,316.879 133.728,316.844C130.307,316.792 130.067,318.945 126.947,318.935C124.062,318.927 124.425,317.309 123.27,317.098C122.471,316.952 121.682,317.065 121.084,317.219L121.136,326.236L120.148,326.239ZM121.08,316.481C121.781,316.333 122.642,316.249 123.512,316.407C124.11,316.516 124.519,316.805 124.868,317.211C125.21,317.608 125.488,318.218 126.951,318.223C128.217,318.227 128.878,317.758 129.59,317.328C130.629,316.7 131.724,316.101 133.748,316.131C135.263,316.154 136.194,316.756 136.942,317.476C137.226,317.75 137.481,318.039 137.752,318.293C137.933,318.463 138.111,318.62 138.342,318.708C138.817,318.891 139.237,318.792 139.498,318.682L139.498,311.996C138.894,312.097 138.168,312.086 137.386,311.793C136.667,311.524 136.157,310.994 135.643,310.424C135.189,309.92 134.719,309.349 133.541,309.357C131.472,309.373 130.881,310.06 130.104,310.569C129.331,311.074 128.451,311.485 126.743,311.446C125.209,311.411 124.307,310.894 123.617,310.339C123.398,310.163 123.204,309.984 123.014,309.825C122.881,309.714 122.786,309.595 122.624,309.565C121.898,309.428 121.347,309.589 121.041,309.724L121.08,316.481Z"/>
                    </g>
                </g>
                <g transform="matrix(6.12323e-17,-1,1,6.12323e-17,-310.592,409.57)">
                    <path d="M71.506,375.346L71.494,372.23L67.292,373.411L73.433,366.276L79.575,373.411L75.373,372.23L75.361,375.346L75.373,378.462L79.575,377.281L73.433,384.415L67.292,377.281L71.494,378.462L71.506,375.346ZM74.365,372.724L74.371,370.896L76.982,371.798L73.424,367.891L69.885,371.798L72.496,370.896L72.502,372.724L72.522,372.724L72.512,375.346L72.522,377.968L72.502,377.968L72.496,379.795L69.885,378.893L73.424,382.801L76.982,378.893L74.371,379.795L74.365,377.968L74.345,377.968L74.355,375.346L74.345,372.724L74.365,372.724Z"/>
                </g>
            </g>
            <g transform="matrix(0.894122,0,0,0.932385,7.81355,22.9979)">
                <rect x="28.051" y="318.772" width="69.342" height="28.958" style="fill:none;"/>
            </g>
        </g>
    </g>
</svg>
