<?xml version="1.0" encoding="UTF-8" standalone="no"?>
<!DOCTYPE svg PUBLIC "-//W3C//DTD SVG 1.1//EN" "http://www.w3.org/Graphics/SVG/1.1/DTD/svg11.dtd">
<svg width="100%" height="100%" viewBox="0 0 27 27" version="1.1" xmlns="http://www.w3.org/2000/svg" xmlns:xlink="http://www.w3.org/1999/xlink" xml:space="preserve" xmlns:serif="http://www.serif.com/" style="fill-rule:evenodd;clip-rule:evenodd;stroke-linejoin:round;stroke-miterlimit:2;">
    <g transform="matrix(1,0,0,1,-391.815,-116.925)">
        <g transform="matrix(0.700754,0,0,0.706773,118.541,36.7564)">
            <rect x="389.971" y="113.429" width="38.53" height="38.202" style="fill:none;"/>
        </g>
        <g transform="matrix(0.033381,0,0,0.033381,391.962,117.09)">
            <path d="M749.375,624.556L622.681,497.863L525.231,457.602C557.674,411.465 575.063,356.402 575,300C575,148.364 451.636,25 300,25C148.364,25 25,148.364 25,300C25,451.636 148.364,575 300,575C356.892,575.065 412.411,557.376 458.78,524.411L498.936,621.598L625.625,748.298C642.029,764.703 664.301,773.929 687.5,773.929C735.502,773.929 775.002,734.429 775.002,686.427C775.002,663.23 765.777,640.96 749.375,624.556ZM75,300C75,175.938 175.938,75 300,75C424.062,75 525,175.938 525,300C525,424.062 424.062,525 300,525C175.938,525 75,424.062 75,300ZM714.017,712.944C699.46,727.468 675.54,727.468 660.983,712.944L541.339,593.3L504.005,502.933L594.375,540.267L714.02,659.911C728.543,674.469 728.541,698.388 714.017,712.944Z" style="fill-rule:nonzero;"/>
        </g>
    </g>
</svg>
