<?xml version="1.0" encoding="UTF-8" standalone="no"?>
<!DOCTYPE svg PUBLIC "-//W3C//DTD SVG 1.1//EN" "http://www.w3.org/Graphics/SVG/1.1/DTD/svg11.dtd">
<svg width="100%" height="100%" viewBox="0 0 30 27" version="1.1" xmlns="http://www.w3.org/2000/svg" xmlns:xlink="http://www.w3.org/1999/xlink" xml:space="preserve" xmlns:serif="http://www.serif.com/" style="fill-rule:evenodd;clip-rule:evenodd;stroke-linejoin:round;stroke-miterlimit:2;">
    <g transform="matrix(1,0,0,1,-113.559,-492.497)">
        <g transform="matrix(0.685351,0,0,0.685351,78.3855,135.283)">
            <g transform="matrix(1.45911,0,0,1.45911,50.8193,521.168)">
                <circle cx="25.723" cy="4.947" r="3.515" style="fill:rgb(255,131,131);"/>
            </g>
            <g transform="matrix(1.45911,0,0,1.45911,20.8794,546.664)">
                <circle cx="25.723" cy="4.947" r="3.515" style="fill:rgb(255,131,131);"/>
            </g>
            <g transform="matrix(1.12082,-0.934219,1.29234,1.55046,39.4742,536.636)">
                <rect x="4.393" y="11.558" width="23.65" height="1.942" style="fill:rgb(255,131,131);"/>
            </g>
            <path d="M61.856,552.299C62.093,552.803 62.225,553.365 62.225,553.958C62.225,556.118 60.471,557.871 58.311,557.871C56.151,557.871 54.397,556.118 54.397,553.958C54.397,551.798 56.151,550.044 58.311,550.044C59.246,550.044 60.104,550.372 60.777,550.919L85.098,530.667C84.666,530.037 84.413,529.276 84.413,528.455C84.413,526.295 86.167,524.542 88.327,524.542C90.487,524.542 92.24,526.295 92.24,528.455C92.24,530.615 90.487,532.369 88.327,532.369C87.626,532.369 86.969,532.185 86.399,531.862L61.856,552.299ZM58.311,551.795C57.118,551.795 56.148,552.764 56.148,553.958C56.148,555.151 57.118,556.12 58.311,556.12C59.505,556.12 60.474,555.151 60.474,553.958C60.474,552.764 59.505,551.795 58.311,551.795ZM88.327,526.292C87.133,526.292 86.164,527.262 86.164,528.455C86.164,529.649 87.133,530.618 88.327,530.618C89.52,530.618 90.489,529.649 90.489,528.455C90.489,527.262 89.52,526.292 88.327,526.292Z"/>
        </g>
        <g transform="matrix(1.13806,0,0,1.48803,-15.6779,-240.354)">
            <rect x="113.559" y="492.497" width="26.361" height="18.145" style="fill:none;"/>
        </g>
    </g>
</svg>
