<?xml version="1.0" encoding="UTF-8" standalone="no"?>
<!DOCTYPE svg PUBLIC "-//W3C//DTD SVG 1.1//EN" "http://www.w3.org/Graphics/SVG/1.1/DTD/svg11.dtd">
<svg width="100%" height="100%" viewBox="0 0 30 27" version="1.1" xmlns="http://www.w3.org/2000/svg" xmlns:xlink="http://www.w3.org/1999/xlink" xml:space="preserve" xmlns:serif="http://www.serif.com/" style="fill-rule:evenodd;clip-rule:evenodd;stroke-linejoin:round;stroke-miterlimit:2;">
    <g transform="matrix(1,0,0,1,-166,-508.979)">
        <g transform="matrix(6.12323e-17,-1,1.07407,6.5768e-17,-405.713,686.617)">
            <path d="M162.107,545.159L156.78,545.159C156.544,545.159 156.33,545.031 156.233,544.831C156.136,544.631 156.174,544.396 156.33,544.231L165.185,534.883C165.299,534.762 165.463,534.694 165.635,534.694C165.807,534.694 165.971,534.762 166.085,534.883L174.94,544.231C175.096,544.396 175.134,544.631 175.037,544.831C174.94,545.031 174.726,545.159 174.49,545.159L169.226,545.159C169.359,548.836 168.439,551.549 166.721,553.503C164.09,556.495 159.536,557.728 153.773,557.807C153.496,557.811 153.253,557.638 153.184,557.389C153.114,557.139 153.237,556.878 153.481,556.756C158.618,554.197 161.827,550.525 162.107,545.159ZM167.963,544.043L168.115,544.042L173.161,544.042L165.635,536.097C165.635,536.097 158.109,544.042 158.109,544.042L163.103,544.042L163.333,544.043L163.336,544.327L163.319,544.885C163.158,550.077 160.527,553.843 156.122,556.586C160.354,556.257 163.726,555.145 165.792,552.796C167.403,550.964 168.195,548.389 168.014,544.893L167.985,544.335L167.963,544.043Z"/>
        </g>
        <g transform="matrix(2.10392,0,0,1,-52.5773,0.625041)">
            <rect x="103.89" y="508.354" width="14.259" height="27.021" style="fill:none;"/>
        </g>
    </g>
</svg>
