<?xml version="1.0" encoding="UTF-8" standalone="no"?>
<!DOCTYPE svg PUBLIC "-//W3C//DTD SVG 1.1//EN" "http://www.w3.org/Graphics/SVG/1.1/DTD/svg11.dtd">
<svg width="100%" height="100%" viewBox="0 0 32 27" version="1.1" xmlns="http://www.w3.org/2000/svg" xmlns:xlink="http://www.w3.org/1999/xlink" xml:space="preserve" xmlns:serif="http://www.serif.com/" style="fill-rule:evenodd;clip-rule:evenodd;stroke-linejoin:round;stroke-miterlimit:2;">
    <g transform="matrix(1,0,0,1,-322.109,-155.972)">
        <g transform="matrix(1,0,0,1,153.568,-19.9951)">
            <g transform="matrix(1,0,0,1,-1.27693,-0.16136)">
                <g transform="matrix(1.11736,0,0,1.11736,-20.0416,-21.9056)">
                    <path d="M193.554,189.318L197.647,199.959L197.271,200.503L171.133,200.343L170.767,199.787L175.483,188.696L187.176,188.705C186.115,186.738 185.21,184.702 185.21,183.48C185.21,180.526 187.608,178.128 190.562,178.128C193.516,178.128 195.914,180.526 195.914,183.48C195.914,184.83 194.782,187.172 193.554,189.318ZM187.618,189.505L178.652,189.499C178.784,189.604 178.928,189.705 179.077,189.804C179.54,190.11 180.057,190.39 180.482,190.686C181.114,191.127 181.536,191.631 181.529,192.226C181.524,192.615 181.338,193.071 180.832,193.594C180.832,193.594 180.77,193.703 180.733,193.792C180.594,194.119 180.433,194.661 180.408,195.154C180.399,195.338 180.408,195.515 180.453,195.665C180.482,195.761 180.523,195.845 180.599,195.896C180.731,195.984 180.928,195.975 181.206,195.9C182.593,195.526 183.987,195.184 185.038,195.27C185.866,195.338 186.501,195.661 186.846,196.337C186.967,196.575 187.091,196.731 187.227,196.825C187.405,196.948 187.598,196.957 187.793,196.954C187.981,196.951 188.171,196.933 188.363,196.934C188.706,196.934 189.049,196.988 189.386,197.203C189.833,197.488 190.296,198.09 190.682,199.408C190.707,199.495 190.702,199.584 190.672,199.662L196.69,199.699L193.037,190.201C191.74,192.371 190.496,194.142 190.496,194.142C190.496,194.142 189.013,191.979 187.618,189.505ZM190.562,178.928C188.05,178.928 186.01,180.968 186.01,183.48C186.01,184.284 186.47,185.468 187.075,186.743C188.121,188.951 189.645,191.389 190.504,192.708C191.383,191.39 192.949,188.948 194.024,186.736C194.642,185.463 195.114,184.283 195.114,183.48C195.114,180.968 193.074,178.928 190.562,178.928ZM177.555,189.498L176.012,189.497L171.738,199.547L189.922,199.658C189.919,199.65 189.917,199.641 189.914,199.633C189.612,198.603 189.306,198.101 188.956,197.878C188.635,197.673 188.299,197.733 187.977,197.748C187.575,197.767 187.187,197.747 186.822,197.516C186.581,197.364 186.345,197.116 186.133,196.701C185.916,196.275 185.494,196.11 184.972,196.067C183.996,195.987 182.703,196.325 181.415,196.672C180.834,196.829 180.43,196.745 180.155,196.562C179.747,196.289 179.578,195.737 179.609,195.115C179.639,194.522 179.83,193.872 179.996,193.48C180.089,193.261 180.186,193.11 180.248,193.048C180.567,192.72 180.726,192.458 180.729,192.215C180.731,192.069 180.666,191.941 180.569,191.819C180.435,191.649 180.242,191.494 180.024,191.342C179.515,190.987 178.874,190.656 178.352,190.274C178.03,190.038 177.752,189.782 177.555,189.498Z"/>
                </g>
                <g transform="matrix(1.4556,0,0,1.4556,-84.9748,-84.314)">
                    <path d="M190.826,181.834C191.908,181.834 192.786,182.712 192.786,183.793C192.786,184.875 191.908,185.752 190.826,185.752C189.745,185.752 188.867,184.875 188.867,183.793C188.867,182.712 189.745,181.834 190.826,181.834ZM190.826,182.448C190.084,182.448 189.481,183.051 189.481,183.793C189.481,184.536 190.084,185.138 190.826,185.138C191.569,185.138 192.171,184.536 192.171,183.793C192.171,183.051 191.569,182.448 190.826,182.448Z"/>
                </g>
            </g>
            <g transform="matrix(0.669476,0,0,0.669476,60.049,61.9207)">
                <rect x="162.055" y="170.352" width="47.699" height="40.33" style="fill:none;"/>
            </g>
        </g>
    </g>
</svg>
