<?xml version="1.0" encoding="UTF-8" standalone="no"?>
<!DOCTYPE svg PUBLIC "-//W3C//DTD SVG 1.1//EN" "http://www.w3.org/Graphics/SVG/1.1/DTD/svg11.dtd">
<svg width="100%" height="100%" viewBox="0 0 33 27" version="1.1" xmlns="http://www.w3.org/2000/svg" xmlns:xlink="http://www.w3.org/1999/xlink" xml:space="preserve" xmlns:serif="http://www.serif.com/" style="fill-rule:evenodd;clip-rule:evenodd;stroke-linejoin:round;stroke-miterlimit:2;">
    <g transform="matrix(1,0,0,1,-234.481,-737.732)">
        <g>
            <g transform="matrix(1,0,0,1,95.9989,-73.8347)">
                <path d="M138.482,831.186C139.365,831.147 140.662,830.747 141.299,830.207L141.314,830.195L141.33,830.183C142.423,829.412 143.686,827.8 144.317,827.211C145.609,826.004 147.725,825.301 149.259,825.651C149.622,825.136 150.121,824.081 150.295,823.391C150.295,823.391 151.146,823.725 151.375,823.853L163.357,811.567L165.196,813.503L153.222,825.751C153.315,825.93 153.402,826.118 153.481,826.316L153.633,826.736L153.671,827.118C153.103,826.892 151.824,827.682 151.71,828.093C152.293,831.694 151.246,834.523 148.091,836.353L147.722,836.567L147.488,836.211C147.301,835.927 147.171,835.602 147.096,835.235C146.491,835.842 145.724,836.208 144.784,836.318L144.767,836.32L144.751,836.321C143.067,836.393 141.565,835.45 140.2,833.852L141.341,832.891C141.098,832.912 139.941,833.177 139.697,833.17L139.249,833.157C139.486,832.809 138.613,831.259 138.482,831.186ZM152.13,824.371C152.345,824.553 152.54,824.754 152.718,824.976L163.943,813.494L163.349,812.868C163.349,812.868 152.463,824.03 152.13,824.371ZM151.187,827.359C151.6,827.028 152.075,826.684 152.576,826.493C152.778,826.124 151.129,824.361 150.661,824.467C150.468,825.077 150.195,825.603 149.855,826.079C150.188,826.564 150.725,827.053 151.187,827.359ZM149.133,826.548C147.854,826.197 146.038,826.838 144.933,827.87C144.286,828.475 142.984,830.115 141.862,830.912C141.283,831.401 140.651,831.764 139.931,831.89C140.001,832.015 140.055,832.14 140.094,832.266C140.801,832.237 141.502,832.075 142.199,831.857L142.738,832.488C142.456,833.061 141.987,833.487 141.342,833.768C142.361,834.821 143.454,835.463 144.686,835.42C145.796,835.286 146.585,834.691 147.101,833.694L147.95,833.95C147.893,834.474 147.917,834.934 148.049,835.319C150.535,833.685 151.315,831.243 150.812,828.192C150.156,827.778 149.579,827.253 149.133,826.548Z"/>
            </g>
            <g transform="matrix(0.171085,0,0,0.171085,231.972,685.231)">
                <circle cx="170.812" cy="416.464" r="30.032" style="fill:rgb(255,1,0);"/>
            </g>
            <g transform="matrix(0.171085,0,0,0.171085,231.972,685.231)">
                <path d="M170.812,379.932C190.975,379.932 207.344,396.302 207.344,416.464C207.344,436.626 190.975,452.996 170.812,452.996C150.65,452.996 134.281,436.626 134.281,416.464C134.281,396.302 150.65,379.932 170.812,379.932ZM170.812,392.932C157.825,392.932 147.281,403.477 147.281,416.464C147.281,429.451 157.825,439.996 170.812,439.996C183.8,439.996 194.344,429.451 194.344,416.464C194.344,403.477 183.8,392.932 170.812,392.932Z"/>
            </g>
        </g>
    </g>
</svg>
