<?xml version="1.0" encoding="UTF-8" standalone="no"?>
<!DOCTYPE svg PUBLIC "-//W3C//DTD SVG 1.1//EN" "http://www.w3.org/Graphics/SVG/1.1/DTD/svg11.dtd">
<svg width="100%" height="100%" viewBox="0 0 27 27" version="1.1" xmlns="http://www.w3.org/2000/svg" xmlns:xlink="http://www.w3.org/1999/xlink" xml:space="preserve" xmlns:serif="http://www.serif.com/" style="fill-rule:evenodd;clip-rule:evenodd;stroke-linecap:round;stroke-miterlimit:1.5;">
    <g transform="matrix(1,0,0,1,-129.641,-629.677)">
        <g>
            <g transform="matrix(1.23436,0,0,1.27758,39.3264,165.168)">
                <path d="M94.231,366.274L94.231,382.029C94.231,383.082 93.347,383.936 92.258,383.936L75.95,383.936C74.861,383.936 73.977,383.082 73.977,382.029L73.977,366.274C73.977,365.222 74.861,364.368 75.95,364.368L92.258,364.368C93.347,364.368 94.231,365.222 94.231,366.274Z" style="fill:white;stroke:black;stroke-width:0.96px;"/>
            </g>
            <g transform="matrix(1,0,0,1,-3.80688,111.331)">
                <path d="M158.711,520.351C159.14,520.79 159.101,521.753 159.101,522.415L159.101,542.544C159.101,543.888 157.949,544.346 156.605,544.346L136.537,544.346C135.854,544.346 135.542,544.257 135.1,543.804L138.688,540.365C142.772,544.463 150.386,544.489 154.501,540.379C158.582,536.303 158.607,528.699 154.515,524.593L158.711,520.351Z" style="fill:rgb(176,176,176);"/>
            </g>
            <g transform="matrix(1.23436,0,0,1.27758,39.3264,165.168)">
                <path d="M94.231,366.274L94.231,382.029C94.231,383.082 93.347,383.936 92.258,383.936L75.95,383.936C74.861,383.936 73.977,383.082 73.977,382.029L73.977,366.274C73.977,365.222 74.861,364.368 75.95,364.368L92.258,364.368C93.347,364.368 94.231,365.222 94.231,366.274Z" style="fill:none;stroke:black;stroke-width:0.96px;"/>
            </g>
            <g transform="matrix(1,0,0,1,108.127,212.523)">
                <ellipse cx="40.045" cy="425.631" rx="2.515" ry="2.512"/>
            </g>
            <g transform="matrix(1,0,0,1,108.127,222.571)">
                <ellipse cx="40.045" cy="425.631" rx="2.515" ry="2.512"/>
            </g>
            <g transform="matrix(1,0,0,1,98.0667,222.571)">
                <ellipse cx="40.045" cy="425.631" rx="2.515" ry="2.512"/>
            </g>
            <g transform="matrix(1,0,0,1,98.0667,212.523)">
                <ellipse cx="40.045" cy="425.631" rx="2.515" ry="2.512"/>
            </g>
        </g>
    </g>
</svg>
