<?xml version="1.0" encoding="UTF-8" standalone="no"?>
<!DOCTYPE svg PUBLIC "-//W3C//DTD SVG 1.1//EN" "http://www.w3.org/Graphics/SVG/1.1/DTD/svg11.dtd">
<svg width="100%" height="100%" viewBox="0 0 45 45" version="1.1" xmlns="http://www.w3.org/2000/svg" xmlns:xlink="http://www.w3.org/1999/xlink" xml:space="preserve" xmlns:serif="http://www.serif.com/" style="fill-rule:evenodd;clip-rule:evenodd;stroke-linejoin:round;stroke-miterlimit:2;">
    <g transform="matrix(1,0,0,1,-134.281,-379.932)">
        <g transform="matrix(0.615904,0,0,0.615904,51.5766,145.93)">
            <circle cx="170.812" cy="416.464" r="30.032" style="fill:rgb(255,1,0);"/>
        </g>
        <g transform="matrix(0.615904,0,0,0.615904,51.5766,145.93)">
            <path d="M170.812,379.932C190.975,379.932 207.344,396.302 207.344,416.464C207.344,436.626 190.975,452.996 170.812,452.996C150.65,452.996 134.281,436.626 134.281,416.464C134.281,396.302 150.65,379.932 170.812,379.932ZM170.812,392.932C157.825,392.932 147.281,403.477 147.281,416.464C147.281,429.451 157.825,439.996 170.812,439.996C183.8,439.996 194.344,429.451 194.344,416.464C194.344,403.477 183.8,392.932 170.812,392.932Z"/>
        </g>
    </g>
</svg>
