<?xml version="1.0" encoding="UTF-8" standalone="no"?>
<!DOCTYPE svg PUBLIC "-//W3C//DTD SVG 1.1//EN" "http://www.w3.org/Graphics/SVG/1.1/DTD/svg11.dtd">
<svg width="100%" height="100%" viewBox="0 0 31 27" version="1.1" xmlns="http://www.w3.org/2000/svg" xmlns:xlink="http://www.w3.org/1999/xlink" xml:space="preserve" xmlns:serif="http://www.serif.com/" style="fill-rule:evenodd;clip-rule:evenodd;stroke-linejoin:round;stroke-miterlimit:2;">
    <g transform="matrix(1,0,0,1,-249.187,-272.008)">
        <g>
            <g transform="matrix(1.07761,0,0,1.07761,80.4897,-80.9651)">
                <g transform="matrix(1,0,0,1,36.5888,-2.55737)">
                    <path d="M127.878,347.858L129.073,348.032C132.447,348.619 135.4,349.98 137.942,352.094C138.196,352.306 138.231,352.684 138.019,352.939C137.807,353.193 137.429,353.228 137.174,353.016C133.289,349.784 128.375,348.45 122.413,349.03C122.084,349.062 121.79,348.82 121.758,348.491C121.726,348.161 121.967,347.868 122.297,347.835C124.265,347.644 126.125,347.652 127.878,347.858Z"/>
                </g>
                <g transform="matrix(1,0,0,1,36.5888,-2.55737)">
                    <path d="M139.99,344.741L141.189,344.788C142.844,344.898 144.52,345.188 145.998,345.604C146.317,345.694 146.503,346.025 146.413,346.344C146.324,346.663 145.992,346.849 145.673,346.759C144.166,346.336 142.442,346.046 140.76,345.963C140.696,345.984 140.627,345.994 140.556,345.992C140.479,345.99 140.407,345.974 140.34,345.946C139.379,345.918 138.439,345.959 137.571,346.084C136.016,346.308 134.691,346.782 133.953,347.662C133.74,347.916 133.362,347.949 133.108,347.736C132.854,347.523 132.821,347.144 133.034,346.891C133.931,345.82 135.509,345.168 137.4,344.897C138.216,344.779 139.092,344.73 139.99,344.741Z"/>
                </g>
            </g>
            <g transform="matrix(0.130414,-0.0390381,0.0390381,0.130414,204.46,258.818)">
                <path d="M324.797,293.738L299.706,287.626L302.314,276.92L327.405,283.033L328.935,277.85C324.543,277.349 319.068,275.957 314.985,274.265L314.702,274.148L314.45,273.974C312.306,272.492 311.461,270.738 311.498,269.155L311.513,268.516L311.796,267.943C311.796,267.943 314.678,262.24 315.082,260.822C315.082,260.822 315.094,258.698 315.135,257.053C315.191,254.827 315.439,252.302 316.181,250.327C317.065,246.855 319.77,243.75 322.83,241.912C325.716,240.177 330.128,239.424 334.107,239.008L334.182,239L334.257,238.996C338.413,238.779 342.449,239.078 346.431,239.895L346.497,239.911C352.479,241.433 357.255,244.505 359.011,251.522L359.047,251.663L359.067,251.808C359.37,253.891 359.605,256.004 360.195,257.946L360.23,258.06L360.255,258.177C360.282,258.299 360.337,258.473 360.379,258.597C361.738,259.097 362.987,259.654 363.801,260.348L364.447,261.002L365.012,261.869L365.383,262.927L365.475,264.057L365.465,264.297L365.142,265.389L364.731,266.146C364.349,266.718 363.81,267.265 363.089,267.747C361.944,268.511 360.181,269.166 357.926,269.636L357.794,269.664L350.462,270.486C348.336,270.753 346.454,271.483 345.141,273.294L345.028,273.451L344.894,273.591C343.793,274.746 340.457,276.864 340.457,276.864L338.111,285.641L361.82,291.416L359.212,302.122L335.503,296.346L321.733,352.872L311.027,350.264L324.797,293.738ZM317.628,269.118C323.38,271.43 329.465,272.465 335.974,272.008L336.012,272.006C338.056,271.916 339.427,270.943 340.591,269.752C342.899,266.666 346.07,265.225 349.778,264.763L356.871,263.967L356.948,263.95C357.2,263.891 357.458,263.819 357.711,263.741C356.054,262.98 355.098,261.478 354.654,259.535C354.014,257.396 353.717,255.083 353.374,252.744C352.192,248.308 348.976,246.501 345.108,245.507C341.717,244.82 338.224,244.567 334.592,244.752C331.493,245.078 328.04,245.505 325.799,246.852C323.965,247.954 322.239,249.742 321.747,251.83L321.698,252.036L321.62,252.233C320.914,254.009 320.892,256.417 320.882,258.281C320.873,260.047 320.852,261.472 320.709,262.072C320.46,263.117 318.636,267.007 317.628,269.118Z"/>
            </g>
            <g transform="matrix(0.109251,-0.00978505,0.0102312,0.114231,230.866,251.481)">
                <path d="M324.797,293.738L299.706,287.626L302.314,276.92L327.405,283.033L328.935,277.85C324.543,277.349 319.068,275.957 314.985,274.265L314.702,274.148L314.45,273.974C312.306,272.492 311.461,270.738 311.498,269.155L311.513,268.516L311.796,267.943C311.796,267.943 314.678,262.24 315.082,260.822C315.082,260.822 315.094,258.698 315.135,257.053C315.191,254.827 315.439,252.302 316.181,250.327C317.065,246.855 319.77,243.75 322.83,241.912C325.716,240.177 330.128,239.424 334.107,239.008L334.182,239L334.257,238.996C338.413,238.779 342.449,239.078 346.431,239.895L346.497,239.911C352.479,241.433 357.255,244.505 359.011,251.522L359.047,251.663L359.067,251.808C359.37,253.891 359.605,256.004 360.195,257.946L360.23,258.06L360.255,258.177C360.282,258.299 360.337,258.473 360.379,258.597C361.738,259.097 362.987,259.654 363.801,260.348L364.447,261.002L365.012,261.869L365.383,262.927L365.475,264.057L365.465,264.297L365.142,265.389L364.731,266.146C364.349,266.718 363.81,267.265 363.089,267.747C361.944,268.511 360.181,269.166 357.926,269.636L357.794,269.664L350.462,270.486C348.336,270.753 346.454,271.483 345.141,273.294L345.028,273.451L344.894,273.591C343.793,274.746 340.457,276.864 340.457,276.864L338.111,285.641L361.82,291.416L359.212,302.122L335.503,296.346L321.733,352.872L311.027,350.264L324.797,293.738ZM317.628,269.118C323.38,271.43 329.465,272.465 335.974,272.008L336.012,272.006C338.056,271.916 339.427,270.943 340.591,269.752C342.899,266.666 346.07,265.225 349.778,264.763L356.871,263.967L356.948,263.95C357.2,263.891 357.458,263.819 357.711,263.741C356.054,262.98 355.098,261.478 354.654,259.535C354.014,257.396 353.717,255.083 353.374,252.744C352.192,248.308 348.976,246.501 345.108,245.507C341.717,244.82 338.224,244.567 334.592,244.752C331.493,245.078 328.04,245.505 325.799,246.852C323.965,247.954 322.239,249.742 321.747,251.83L321.698,252.036L321.62,252.233C320.914,254.009 320.892,256.417 320.882,258.281C320.873,260.047 320.852,261.472 320.709,262.072C320.46,263.117 318.636,267.007 317.628,269.118Z"/>
            </g>
            <g transform="matrix(0.931153,0,0,0.844955,18.664,46.139)">
                <rect x="247.568" y="267.315" width="32.818" height="31.954" style="fill:none;"/>
            </g>
        </g>
    </g>
</svg>
