<?xml version="1.0" encoding="UTF-8" standalone="no"?>
<!DOCTYPE svg PUBLIC "-//W3C//DTD SVG 1.1//EN" "http://www.w3.org/Graphics/SVG/1.1/DTD/svg11.dtd">
<svg width="100%" height="100%" viewBox="0 0 29 27" version="1.1" xmlns="http://www.w3.org/2000/svg" xmlns:xlink="http://www.w3.org/1999/xlink" xml:space="preserve" xmlns:serif="http://www.serif.com/" style="fill-rule:evenodd;clip-rule:evenodd;stroke-linejoin:round;stroke-miterlimit:2;">
    <g transform="matrix(1,0,0,1,-474.711,-200.311)">
        <g transform="matrix(0.538758,0,0,0.944951,249.628,-83.2335)">
            <rect x="417.781" y="300.063" width="52.708" height="28.573" style="fill:none;"/>
        </g>
        <g transform="matrix(0.181802,0.052541,-0.0513055,0.177527,480.993,156.357)">
            <path d="M143.494,306.81C127.603,313.568 96.762,299.754 96.685,298.226C96.685,298.226 99.943,292.895 99.943,292.895L90.299,291.004C90.321,290.761 62.949,261.477 44.182,250.382L44.553,250.347C80.364,242.006 119.474,247.135 133.023,264.452C133.429,264.971 135.445,272.325 135.445,272.325C135.445,272.325 140.251,269.996 141.031,271.739C146.308,283.522 149.291,294.595 146.843,302.471L146.747,302.381C151.306,307.447 155.535,312.746 159.427,318.24L155.121,321.438C151.539,316.382 147.661,311.495 143.494,306.81ZM56.635,252.717C72.177,262.896 81.712,273.034 92.992,285.889C92.992,285.889 106.824,288.853 107.157,289.841C107.489,290.829 104.299,295.808 104.801,295.965C122.693,301.571 128.505,303.705 139.113,302.072C124.492,286.861 106.639,274.058 85.741,264.925L87.829,259.915C109.271,269.285 127.605,282.401 142.644,297.98C142.655,297.596 142.718,297.177 142.9,296.839C143.696,295.36 137.914,277.315 137.242,276.385C137.242,276.385 131.851,278.807 131.469,277.415C131.469,277.415 128.239,266.221 128.238,266.22C116.19,254.895 88.301,248.534 56.635,252.717ZM95.09,242.443L89.743,242.642L89.723,226.836L176.457,226.836L176.457,339.531L89.709,339.531L89.964,300.124L95.284,300.16C95.284,300.16 95.064,334.083 95.064,334.083C95.064,334.083 171.137,334.083 171.137,334.083L171.137,232.283L95.049,232.283L95.09,242.443Z"/>
        </g>
    </g>
</svg>
